<?xml version="1.0" encoding="UTF-8"?>
<!DOCTYPE svg PUBLIC "-//W3C//DTD SVG 1.1//EN" "http://www.w3.org/Graphics/SVG/1.1/DTD/svg11.dtd">
<!-- Creator: CorelDRAW 2019 (64-Bit) -->
<svg xmlns="http://www.w3.org/2000/svg" xml:space="preserve" width="1025px" height="438px" version="1.1" shape-rendering="geometricPrecision" text-rendering="geometricPrecision" image-rendering="optimizeQuality" fill-rule="evenodd" clip-rule="evenodd"
viewBox="0 0 757.54 324.03"
 xmlns:xlink="http://www.w3.org/1999/xlink"
 xmlns:xodm="http://www.corel.com/coreldraw/odm/2003">
 <defs>
    <clipPath id="id0">
     <path d="M32.48 15.09l498.78 0 0 308.94 -498.78 0 0 -308.94z"/>
    </clipPath>
   <linearGradient id="id1" gradientUnits="userSpaceOnUse" x1="151.9" y1="403.2" x2="306.6" y2="-64.07">
    <stop offset="0" stop-opacity="1" stop-color="#DDDDDC"/>
    <stop offset="0.168627" stop-opacity="1" stop-color="#939AAA"/>
    <stop offset="1" stop-opacity="1" stop-color="#485677"/>
   </linearGradient>
   <linearGradient id="id2" gradientUnits="userSpaceOnUse" x1="54.15" y1="78.98" x2="485.68" y2="98.3">
    <stop offset="0" stop-opacity="1" stop-color="white"/>
    <stop offset="0.858824" stop-opacity="1" stop-color="#FFFA80"/>
    <stop offset="1" stop-opacity="1" stop-color="#FFF500"/>
   </linearGradient>
 </defs>
 <g id="Слой_x0020_1">
  <metadata id="CorelCorpID_0Corel-Layer"/>
  <g id="_2073375355184">
   <g clip-path="url(#id0)">
    <image x="32.48" y="15.09" width="498.78" height="308.94" xlink:href="logo_Images\logo_ImgID1.png"/>
   </g>
  </g>
  <path fill="url(#id1)" d="M458.49 35.27l-8.06 7.56c-170.1,-10.26 -466,124.23 -397.43,260.63 -7.79,0.19 -30.68,0.27 -34.9,0.42 -88.92,-105 164.4,-271.12 440.39,-268.61z"/>
  <path fill="#FEFEFE" d="M552.94 0c77.85,0 142.88,62.18 142.88,141.18 0,79 -65.03,141.19 -142.88,141.19 -77.85,0 -142.88,-62.18 -142.88,-141.19 0,-79 65.03,-141.18 142.88,-141.18z"/>
  <path fill="#485677" d="M552.94 5.72c75.77,0 137.2,60.65 137.2,135.46 0,74.82 -61.43,135.47 -137.2,135.47 -75.77,0 -137.2,-60.65 -137.2,-135.47 0,-74.81 61.43,-135.46 137.2,-135.46z"/>
  <path fill="#FFF500" d="M571.31 41.79c58.78,0 106.44,47.46 106.44,106.01 0,58.55 -47.66,106.01 -106.44,106.01 -58.78,0 -106.44,-47.46 -106.44,-106.01 0,-58.55 47.66,-106.01 106.44,-106.01z"/>
  <path fill="#FEFEFE" fill-rule="nonzero" d="M440.16 106.45c-13.7,25.86 -50.07,101.03 -63.5,135.95l9.39 2.36c9.52,-22.05 33.87,-74.01 47.07,-91.19 3.23,-4.22 10.43,-14.04 15.77,-14.04 1.96,0 2.09,1.18 2.09,1.57 0,0.39 0,0.66 0,1.05 -0.13,1.58 -1.69,3.15 -6,10.63 -4.56,7.88 -5.21,11.29 -5.21,13.79 0,5.64 4.56,6.3 6.78,6.3 4.95,0 14.34,-5.52 18.25,-8.27l2.87 -8.93c-4.56,1.97 -10.82,5.52 -12.91,5.52 -0.52,0 -1.56,-0.4 -1.56,-1.71 0,-2.36 3.26,-6.04 7.95,-15.49 1.83,-3.68 3.52,-7.09 3.52,-10.24 0,-3.28 -2.21,-7.09 -6.39,-7.09 -4.82,0 -11.21,4.46 -26.21,19.69l-1.3 -0.79 17.99 -34.91 -8.6 -4.2z"/>
  <path fill="#FEFEFE" d="M371.67 134.02c0.81,-0.84 1.63,-1.65 2.45,-2.43 7.31,-6.87 19.92,-15.35 30.29,-15.35 3.55,0 6.58,0.88 9.24,2.62l1.19 -1.73 16.94 8.89 -2.27 4.1c-2.31,4.19 -4.57,8.4 -6.78,12.64 -10.79,20.67 -20.61,41.94 -29.83,63.36 -3.23,7.51 -6.39,15.06 -9.47,22.63 -1.48,3.66 -2.92,7.34 -4.42,10.99l-1.61 3.91 -21.01 -6.9 2.36 -4.75c9.79,-19.7 19.08,-39.65 28.65,-59.47 -3.97,2.18 -8.27,3.53 -12.98,3.53 -8.75,0 -15.13,-5.83 -15.6,-14.56 -6.53,8.04 -15.48,14.56 -25.99,14.56 -9.95,0 -16.31,-4.9 -18.18,-13.25 -4.22,4.51 -9.27,8.25 -14.37,10.88 -6.36,3.27 -13.47,5.25 -20.64,5.25 -4.62,0 -9.66,-0.35 -14.2,-1.27l-3.21 -0.64 -0.85 1.41 -20 -8.69 2.87 -4.53c5.62,-8.87 11.08,-17.83 16.52,-26.81 4.65,-7.68 9.29,-15.36 14.16,-22.9 2.97,-4.6 6.02,-9.13 9.17,-13.59 -6.17,1.56 -12.23,3.54 -18.24,5.63l-4.27 1.48 -6.21 -17.76 4.07 -1.62c17.73,-7.06 39.83,-9.9 58.78,-9.9 10.92,0 21.89,0.86 32.75,1.85l6.6 0.61 -9.84 20.05 -3.44 -0.73c-6.94,-1.46 -14.26,-2.66 -21.37,-2.66l-13.95 0c-3.74,5.34 -7.37,10.78 -10.95,16.22 -1.15,1.75 -2.29,3.49 -3.42,5.25 4.63,-1.91 9.54,-3.05 14.37,-3.05 10.3,0 15.07,7.5 16.24,16.34 0.49,-0.53 0.99,-1.05 1.49,-1.55 7.85,-7.89 18.01,-14.26 28.18,-18.62 1.85,-0.8 3.73,-1.53 5.63,-2.21l4.6 -1.64 2.13 7.76 3.65 -1.02 0.96 4.82c0.8,4.03 0.62,8.44 -0.19,12.85zm-99.1 27.12c1.48,0.19 2.95,0.26 4.46,0.26 5.43,0 11.11,-2.93 15.34,-6.17 4.69,-3.61 11.41,-10.98 11.41,-17.35 0,-1.57 -0.09,-2.38 -1.72,-2.38 -5.19,0 -12.32,6.13 -15.81,9.5 -4.92,4.76 -9.49,10.32 -13.68,16.14zm77.47 -25.05c-3.88,3 -7.59,6.55 -10.53,10.4 -1.76,2.31 -4.48,6.47 -4.48,9.5 0,0.97 -0.04,2.39 1.19,2.39 5.14,0 9.8,-10.25 11.3,-14.17 0.87,-2.26 1.8,-5.16 2.52,-8.12zm55.41 -3.31c-4.56,0.52 -11.37,6.1 -14.31,8.98 -3.03,2.96 -8.82,9.69 -9.16,14.34 3.12,-0.83 7.88,-4.42 9.75,-6.03 5.53,-4.76 10.17,-10.84 13.72,-17.29z"/>
  <path fill="#485677" fill-rule="nonzero" d="M264.38 103.22c15.13,-5.25 23.34,-7.08 30.38,-8.14 -17.6,23.11 -27.38,42.14 -46.68,72.6l11.48 4.98c16.29,-26.9 32.33,-41.74 42.5,-41.74 4.57,0 6.26,3.15 6.26,6.96 0,11.81 -16.82,28.09 -31.29,28.09 -2.22,0 -4.3,-0.13 -6.52,-0.53l-4.17 7.75c3.26,0.66 8.21,1.18 13.3,1.18 20.6,0 41.33,-18.51 41.33,-36.1 0,-9.06 -3.26,-16.41 -11.99,-16.41 -9.92,0 -19.69,5.52 -25.82,11.03l-1.18 -0.66c4.57,-8.4 18.52,-29.27 24.65,-37.93l16.3 0c4.3,0 11.08,0.39 22.3,2.75l5.34 -10.89c-5.73,-0.53 -19.95,-1.84 -32.34,-1.84 -15.12,0 -38.33,2.1 -57.11,9.58l3.26 9.32zm97.66 12.34c-22.82,8.14 -43.42,25.86 -43.42,41.75 0,6.82 2.74,14.17 14.21,14.17 21.1,0 37.89,-32.72 34.57,-49.41l-11.73 3.28c1.28,8.4 -6.75,37.6 -19.45,37.6 -2.61,0 -5.73,-1.57 -5.73,-6.96 0,-10.37 17.73,-27.7 33.64,-32.82l-2.09 -7.61zm54.24 7.48l-1.83 2.63c-2.99,-3.54 -6.12,-4.86 -10.04,-4.86 -13.82,0 -41.07,20.87 -41.07,39.65 0,8.92 7.04,11.02 11.08,11.02 12.13,0 20.47,-11.15 24.65,-13.78l0.52 0.26c-12.58,25.34 -24.26,50.9 -36.78,76.09l12 3.94c2.22,-5.38 24.13,-61.91 50.73,-110.09l-9.26 -4.86zm-5.09 8.54c-9.51,19.56 -24.38,29.27 -30.38,29.27 -1.95,0 -3.39,-1.71 -3.39,-4.33 0,-10.5 18.78,-28.36 28.69,-28.36 2.09,0 4.04,1.19 5.08,3.42z"/>
  <path fill="#485677" fill-rule="nonzero" d="M505.9 117.99l2.08 7.61c-5.63,1.8 -10.65,4.6 -15.04,8.38 -4.41,3.77 -7.8,7.77 -10.19,12.01 -2.39,4.23 -3.58,7.81 -3.58,10.72 0,2.47 0.56,4.25 1.71,5.32 1.15,1.09 2.48,1.64 4.02,1.64 2.52,0 5.2,-1.2 8,-3.63 2.83,-2.43 5.17,-5.76 7.04,-9.98 1.89,-4.22 2.83,-8.86 2.83,-13.96 0,-0.96 -0.09,-2.51 -0.26,-4.59l11.75 -3.28c0.33,1.73 0.5,3.7 0.5,5.9 0,6.53 -1.65,12.72 -4.97,18.62 -3.31,5.89 -7.54,10.61 -12.72,14.16 -5.19,3.52 -10.36,5.29 -15.58,5.29 -9.45,0 -14.19,-4.72 -14.19,-14.15 0,-5.32 1.7,-10.59 5.06,-15.8 3.37,-5.18 8,-9.89 13.87,-14.09 5.87,-4.2 12.41,-7.59 19.67,-10.17zm47.1 23.21l-8.35 -4.96c1.22,-2.19 1.8,-3.75 1.8,-4.62 0,-0.53 -0.23,-0.98 -0.74,-1.38 -0.5,-0.37 -1.15,-0.57 -1.99,-0.57 -2.16,0 -4.92,1.64 -8.26,4.9 -3.37,3.28 -6.31,7.18 -8.8,11.69 -2.53,4.52 -3.79,8.48 -3.79,11.9 0,3.23 1.79,4.85 5.35,4.85 4.59,0 12.84,-2.67 24.78,-8.02l-2.87 8.94c-6.48,2.96 -11.8,5.08 -16,6.35 -4.19,1.29 -8.08,1.92 -11.67,1.92 -8.5,0 -12.76,-4.15 -12.76,-12.47 0,-4.11 1.24,-8.49 3.74,-13.12 2.5,-4.62 5.8,-8.95 9.91,-12.96 4.09,-4.02 8.5,-7.24 13.17,-9.67 4.67,-2.42 9.09,-3.63 13.21,-3.63 3.2,0 5.48,0.99 6.89,2.96 1.4,1.97 2.09,4.24 2.09,6.89 0,3.65 -1.91,7.33 -5.71,11zm15.8 -21.24l9.13 4.7 -10.57 19.6 1.18 0.77c2.17,-1.75 5.13,-4.51 8.84,-8.27 7.39,-7.44 13.19,-11.16 17.37,-11.16 1.41,0 2.84,0.44 4.32,1.29 1.46,0.88 2.2,2.37 2.2,4.49 0,2.25 -1.66,5.75 -4.96,10.5 -0.06,0.09 -0.39,0.55 -0.98,1.4 -0.58,0.83 -1.19,1.66 -1.82,2.47 -0.63,0.79 -1,1.27 -1.11,1.38l1.3 0.79c10.52,-10.59 18.26,-15.86 23.21,-15.86 1.29,0 2.5,0.41 3.66,1.24 1.13,0.83 1.69,2.15 1.69,3.96 0,2.63 -1.74,6.74 -5.22,12.34 -0.82,1.38 -1.84,2.93 -3.02,4.71 -1.17,1.75 -1.95,3.02 -2.37,3.76 -0.41,0.74 -0.6,1.38 -0.6,1.93 0,0.87 0.39,1.31 1.17,1.31 0.5,0 5.76,-2.1 15.78,-6.32l-2.87 8.94c-4.5,2.48 -8.11,4.38 -10.82,5.69 -2.72,1.34 -4.85,2.23 -6.35,2.69 -1.5,0.46 -2.87,0.68 -4.06,0.68 -3.13,0 -5.09,-1.31 -5.91,-3.94 -0.16,-1.07 -0.24,-1.81 -0.24,-2.25 0,-0.59 0.08,-1.34 0.24,-2.23 0.3,-1.25 0.78,-2.5 1.43,-3.77 0.63,-1.26 1.5,-2.75 2.59,-4.46 1.08,-1.68 1.8,-2.84 2.13,-3.43 0.65,-1.1 1.19,-2.02 1.67,-2.78 0.46,-0.79 0.78,-1.36 0.93,-1.73 0.18,-0.37 0.26,-0.74 0.26,-1.14 0,-0.79 -0.39,-1.18 -1.17,-1.18 -1.46,0 -4.11,1.84 -7.93,5.51 -3.83,3.68 -7.69,7.79 -11.63,12.36 -3.91,4.55 -6.41,7.62 -7.45,9.17l-9.52 -2.62 14.36 -27.55c0,-1.33 -0.13,-1.99 -0.39,-1.99 -0.69,0 -3.61,2.36 -8.73,7.07 -4.13,3.8 -7.74,7.48 -10.87,11 -3.13,3.55 -6.5,8.29 -10.13,14.22l-9.65 -2.89 24.91 -50.4zm19.3 3.65l-4.44 -6.01c17.58,-10.4 35.49,-15.87 53.73,-16.41l-5.48 12.07c-2.5,-0.61 -5.54,-0.91 -9.11,-0.91 -10.75,0 -22.34,3.74 -34.7,11.26zm56.09 -5.1l8.48 5.39 -12.54 17.74 1.06 0.76c4.81,-3.5 10.06,-5.27 15.8,-5.27 2.11,0 3.96,0.81 5.54,2.39 1.59,1.57 2.39,3.93 2.39,7.09 0,2.99 -0.84,6.01 -2.54,9.05 -1.69,3.04 -4.02,5.82 -6.95,8.34 -2.91,2.51 -6.13,4.53 -9.59,5.99 -3.47,1.47 -6.89,2.21 -10.23,2.21 -4.2,0 -7.39,-1.22 -9.61,-3.65 -2.22,-2.43 -3.32,-5.21 -3.32,-8.29 0,-1.56 0.26,-3.33 0.78,-5.32 0.52,-1.99 1.52,-4.59 3.04,-7.79 1.5,-3.19 3.7,-7.17 6.59,-11.92 2.87,-4.75 6.58,-10.33 11.1,-16.72zm-11.73 42.67c0,2.71 1.17,4.07 3.5,4.07 1.95,0 4.25,-1.03 6.86,-3.09 2.63,-2.03 4.89,-4.44 6.76,-7.17 1.89,-2.76 2.83,-5.04 2.83,-6.83 0,-1.84 -1,-2.76 -3,-2.76 -2.11,0 -4.5,0.9 -7.2,2.69 -2.67,1.8 -4.97,3.96 -6.89,6.46 -1.91,2.49 -2.86,4.7 -2.86,6.63z"/>
  <path fill="#FFF500" d="M661.63 48.61c131.73,51.19 112.83,126.31 32.88,159.44 31.8,-27.21 50.28,-81.53 -7.42,-114.32 -5.48,-13.78 -16.01,-33.47 -25.46,-45.12z"/>
  <path fill="url(#id2)" d="M461.82 32.45c12.27,-9.18 9.38,-7.71 24.08,-14.95 -119.68,2.11 -339.89,29.66 -431.89,125.32 -0.45,3.44 0.91,11.47 1.04,16.93 29.93,-30.39 185.39,-135.37 406.77,-127.3z"/>
 </g>
</svg>
